<?xml version="1.0" encoding="UTF-8"?>
<!-- Generator: Adobe Illustrator 27.6.1, SVG Export Plug-In . SVG Version: 6.00 Build 0)  -->
<svg xmlns="http://www.w3.org/2000/svg" xmlns:xlink="http://www.w3.org/1999/xlink" version="1.1" id="Layer_2" x="0px" y="0px" viewBox="0 0 48 48" xml:space="preserve">
<path fill="none" stroke="#F65600" stroke-width="2" stroke-linejoin="round" stroke-miterlimit="10" d="M47,24  c0,2.3-4.1,3.9-4.8,5.9c-0.7,2.1,1.7,5.8,0.4,7.6c-1.3,1.8-5.6,0.7-7.3,2c-1.8,1.3-2,5.7-4.2,6.4c-2.1,0.7-4.8-2.7-7.1-2.7  c-2.3,0-5.1,3.4-7.1,2.7c-2.1-0.7-2.4-5.1-4.2-6.4c-1.8-1.3-6-0.2-7.3-2c-1.3-1.8,1.1-5.5,0.4-7.6C5.1,27.9,1,26.3,1,24  c0-2.3,4.1-3.9,4.8-5.9c0.7-2.1-1.7-5.8-0.4-7.6c1.3-1.8,5.6-0.7,7.3-2c1.8-1.3,2-5.7,4.2-6.4c2.1-0.7,4.8,2.7,7.1,2.7  c2.3,0,5.1-3.4,7.1-2.7c2.1,0.7,2.4,5.1,4.2,6.4c1.8,1.3,6,0.2,7.3,2c1.3,1.8-1.1,5.5-0.4,7.6C42.9,20.1,47,21.7,47,24z"></path>
<line fill="none" stroke="#F65600" stroke-width="2" stroke-linejoin="round" stroke-miterlimit="10" x1="13" y1="35" x2="35" y2="13"></line>
<circle fill="none" stroke="#F65600" stroke-width="2" stroke-linejoin="round" stroke-miterlimit="10" cx="18" cy="17" r="4"></circle>
<circle fill="none" stroke="#F65600" stroke-width="2" stroke-linejoin="round" stroke-miterlimit="10" cx="31" cy="31" r="4"></circle>
</svg>
