<?xml version="1.0" encoding="UTF-8"?>
<!-- Generator: Adobe Illustrator 27.6.1, SVG Export Plug-In . SVG Version: 6.00 Build 0)  -->
<svg xmlns="http://www.w3.org/2000/svg" xmlns:xlink="http://www.w3.org/1999/xlink" version="1.1" id="Layer_2" x="0px" y="0px" viewBox="0 0 48 48" xml:space="preserve">
<polyline fill="none" stroke="#F65600" stroke-width="2" stroke-linejoin="round" stroke-miterlimit="10" points="13,35.8 12.9,47   47,47 47,13 "></polyline>
<path fill="none" stroke="#F65600" stroke-width="2" stroke-linejoin="round" stroke-miterlimit="10" d="M13,34.1"></path>
<polyline fill="none" stroke="#F65600" stroke-width="2" stroke-linejoin="round" stroke-miterlimit="10" points="35,1 13,1   13,18.6 "></polyline>
<polygon fill="none" stroke="#F65600" stroke-width="2" stroke-linejoin="round" stroke-miterlimit="10" points="35,13 47,13 35,1   "></polygon>
<line fill="none" stroke="#F65600" stroke-width="2" stroke-linejoin="round" stroke-miterlimit="10" x1="30" y1="33" x2="42" y2="33"></line>
<line fill="none" stroke="#F65600" stroke-width="2" stroke-linejoin="round" stroke-miterlimit="10" x1="22.9" y1="28" x2="42" y2="28"></line>
<line fill="none" stroke="#F65600" stroke-width="2" stroke-linejoin="round" stroke-miterlimit="10" x1="21" y1="23" x2="42" y2="23"></line>
<line fill="none" stroke="#F65600" stroke-width="2" stroke-linejoin="round" stroke-miterlimit="10" x1="18" y1="18" x2="42" y2="18"></line>
<line fill="none" stroke="#F65600" stroke-width="2" stroke-linejoin="round" stroke-miterlimit="10" x1="33.8" y1="41" x2="42" y2="41"></line>
<g>
	
		<rect x="1.5" y="11.6" transform="matrix(0.7071 -0.7071 0.7071 0.7071 -8.2234 6.2849)" fill="none" stroke="#F65600" stroke-width="2" stroke-linejoin="round" stroke-miterlimit="10" width="4" height="3"></rect>
	<polygon fill="none" stroke="#F65600" stroke-width="2" stroke-linejoin="round" stroke-miterlimit="10" points="27.9,33.2    31.4,41 23.6,37.5 2.4,16.3 6.7,12  "></polygon>
	
		<line fill="none" stroke="#F65600" stroke-width="2" stroke-linejoin="round" stroke-miterlimit="10" x1="22.9" y1="36.8" x2="27.2" y2="32.5"></line>
</g>
</svg>
