<?xml version="1.0" encoding="UTF-8"?>
<!-- Generator: Adobe Illustrator 27.6.1, SVG Export Plug-In . SVG Version: 6.00 Build 0)  -->
<svg xmlns="http://www.w3.org/2000/svg" xmlns:xlink="http://www.w3.org/1999/xlink" version="1.1" id="Layer_2" x="0px" y="0px" viewBox="0 0 48 48" xml:space="preserve">
<g>
	<path fill="none" stroke="#F65600" stroke-width="2" stroke-linejoin="round" stroke-miterlimit="10" d="M33.7,12.2   c0,0-2.4-1.3-4.3,0.5s-0.7,4.6-0.5,6.2c0.2,1.7-2.5,5.3-2.5,5.3s1.6-0.8,4-0.8s3.8,0.8,3.8,0.8"></path>
	
		<line fill="none" stroke="#F65600" stroke-width="2" stroke-linejoin="round" stroke-miterlimit="10" x1="25.7" y1="18" x2="32.6" y2="18"></line>
</g>
<path fill="none" stroke="#F65600" stroke-width="2" stroke-linejoin="round" stroke-miterlimit="10" d="M30,31c7.2,0,13-5.8,13-13"></path>
<path fill="none" stroke="#F65600" stroke-width="2" stroke-linejoin="round" stroke-miterlimit="10" d="M30,5c-7.2,0-13,5.8-13,13"></path>
<g>
	<path fill="none" stroke="#F65600" stroke-width="2" stroke-linejoin="round" stroke-miterlimit="10" d="M2.5,45.6L2.5,45.6   C1,44,1,41.5,2.5,39.9l8.5-8.5l5.7,5.7l-8.5,8.5C6.6,47.2,4.1,47.2,2.5,45.6z"></path>
	<polyline fill="none" stroke="#F65600" stroke-width="2" stroke-linejoin="round" stroke-miterlimit="10" points="17,28.3    12.4,32.8 15.3,35.7 19.8,31.3  "></polyline>
</g>
<path fill="none" stroke="#F65600" stroke-width="2" stroke-linejoin="round" stroke-miterlimit="10" d="M14.1,12  C16.5,5.6,22.7,1,30,1c9.4,0,17,7.6,17,17s-7.6,17-17,17s-17-7.6-17-17C13,15.4,14.1,12,14.1,12z"></path>
</svg>
